<svg xmlns="http://www.w3.org/2000/svg" viewBox="0 0 60 75" x="0px" y="0px"><path d="M30,59.993a2.959,2.959,0,0,0,1.318-.3C54.241,48.383,55.9,20.581,56,15.122A3,3,0,0,0,54.386,12.4L31.388.342a2.991,2.991,0,0,0-2.775,0L5.613,12.4A3,3,0,0,0,4,15.123c.1,5.458,1.759,33.26,24.682,44.57A2.982,2.982,0,0,0,30,59.993ZM6,15.087a1.009,1.009,0,0,1,.542-.917l23-12.057a1.027,1.027,0,0,1,.917,0l23,12.057a1.008,1.008,0,0,1,.543.916C53.9,20.341,52.316,47.1,30.434,57.9a1.008,1.008,0,0,1-.868,0C7.684,47.1,6.1,20.341,6,15.087Z"/><path d="M30.977,55.361c5.8-3.2,19.462-13.338,20.947-38.4a2.007,2.007,0,0,0-1.069-1.894L30.929,4.617a2,2,0,0,0-1.857,0L9.144,15.064a2.007,2.007,0,0,0-1.068,1.894C9.56,42.02,23.218,52.163,29.021,55.36A2.115,2.115,0,0,0,30.977,55.361ZM42,12.682l7.928,4.157C49.244,28.383,45.9,36.606,42,42.38ZM31,6.913l9,4.72V45.088a34.929,34.929,0,0,1-9,7.938ZM18,42.383c-3.9-5.775-7.244-14-7.928-25.547L18,12.68ZM29,53.037a34.975,34.975,0,0,1-9-7.944V11.631l9-4.718Z"/><text x="0" y="75" fill="#000000" font-size="5px" font-weight="bold" font-family="'Helvetica Neue', Helvetica, Arial-Unicode, Arial, Sans-serif">Created by Juicy Fish</text><text x="0" y="80" fill="#000000" font-size="5px" font-weight="bold" font-family="'Helvetica Neue', Helvetica, Arial-Unicode, Arial, Sans-serif">from the Noun Project</text></svg>